<svg width="38" height="38" viewBox="0 0 38 38" fill="none" xmlns="http://www.w3.org/2000/svg">
<g id="github" clip-path="url(#clip0_105_210)">
<path id="Vector" d="M18.9976 0C8.50726 0 1.09641e-05 8.5405 1.09641e-05 19.076C-0.00427501 23.0744 1.24811 26.9731 3.58016 30.221C5.91221 33.4689 9.206 35.9018 12.996 37.1759C13.946 37.3516 14.2928 36.7626 14.2928 36.2567C14.2928 35.8031 14.2761 34.6037 14.2666 33.0125C8.98226 34.1644 7.86601 30.4546 7.86601 30.4546C7.00389 28.2506 5.75701 27.664 5.75701 27.664C4.03039 26.4812 5.88526 26.505 5.88526 26.505C7.79239 26.6404 8.79464 28.4715 8.79464 28.4715C10.4904 31.3856 13.243 30.5449 14.326 30.0556C14.497 28.823 14.9886 27.9823 15.5325 27.5049C11.3145 27.0228 6.87801 25.3864 6.87801 18.0785C6.87801 15.9956 7.61901 14.2927 8.83501 12.958C8.63789 12.4759 7.98714 10.5355 9.02026 7.91113C9.02026 7.91113 10.6163 7.39812 14.2453 9.86575C15.7955 9.44208 17.3953 9.22644 19.0024 9.2245C20.6096 9.22769 22.2092 9.44412 23.7595 9.86813C27.3861 7.4005 28.9798 7.9135 28.9798 7.9135C30.0153 10.5402 29.3645 12.4782 29.1698 12.9604C30.3881 14.2951 31.122 15.998 31.122 18.0809C31.122 25.4077 26.6808 27.0204 22.4485 27.493C23.1301 28.082 23.7381 29.2457 23.7381 31.0246C23.7381 33.5754 23.7144 35.6321 23.7144 36.2567C23.7144 36.7674 24.0564 37.3611 25.0206 37.1735C28.807 35.8964 32.0967 33.4626 34.4255 30.2155C36.7543 26.9683 38.0046 23.0719 38 19.076C38 8.5405 29.4928 0 18.9976 0Z" fill="white"/>
</g>
<defs>
<clipPath id="clip0_105_210">
<rect width="38" height="38" fill="white"/>
</clipPath>
</defs>
</svg>
