<svg width="69" height="69" viewBox="0 0 69 69" fill="none" xmlns="http://www.w3.org/2000/svg">
<g id="_&#234;&#178;&#169;&#235;&#166;&#172;_&#235;&#170;&#168;&#235;&#147;&#156;" clip-path="url(#clip0_105_94)">
<path id="Vector" d="M0 34.1165C0 15.2727 15.2727 0 34.1165 0C52.9604 0 68.24 15.2727 68.24 34.1165C68.24 52.9604 52.9604 68.2331 34.1165 68.2331C15.2727 68.24 0 52.9673 0 34.1165ZM10.6584 10.6584C4.6488 16.668 0.939431 24.9571 0.939431 34.1165C0.939431 43.2829 4.6488 51.572 10.6584 57.5747C16.6611 63.5843 24.9502 67.2937 34.1165 67.2937C43.2829 67.2937 51.572 63.5843 57.5747 57.5747C63.5843 51.572 67.2937 43.2829 67.2937 34.1165C67.2937 24.9571 63.5774 16.6611 57.5747 10.6584C51.572 4.6488 43.2829 0.939431 34.1165 0.939431C24.9571 0.939431 16.6611 4.6488 10.6584 10.6584Z" fill="white"/>
<path id="Vector_2" d="M12.5027 49.5067L8.73112 52.1592L8.46863 51.7931L12.2471 49.1406L12.5096 49.5067H12.5027Z" fill="white"/>
<path id="Vector_3" d="M55.9928 49.1335L59.7712 51.7861L59.5156 52.1522L55.7372 49.5066L55.9997 49.1335H55.9928Z" fill="white"/>
<path id="Vector_4" d="M2.97029 38.5374L4.02024 38.3232L4.13076 38.8966L3.6196 39.0002L3.93044 40.5958L5.74713 40.2297L5.52609 39.1452L5.09091 39.235L4.98039 38.7032L6.37572 38.4269L6.48625 38.9587L6.05107 39.0485L6.2652 40.1192L8.22005 39.7255L7.86776 37.971L7.30134 38.0815L7.19082 37.5082L8.32366 37.2871L9.07659 41.0517L8.55161 41.1554L8.448 40.6373L4.11004 41.5076L4.21365 42.0257L3.68868 42.1362L2.96338 38.5236L2.97029 38.5374Z" fill="white"/>
<path id="Vector_5" d="M7.69504 31.4225L7.79865 30.8975L3.46069 30.0272L3.35708 30.5452L2.8252 30.4416L3.07387 29.2121L7.59833 27.3885L4.12382 26.6908L4.02021 27.2158L3.49523 27.1053L3.8337 25.406L4.35868 25.5096L4.25506 26.0277L9.18708 27.0155L9.03511 27.7684L4.52446 29.5436L7.92299 30.2275L8.0197 29.7025L8.55158 29.813L8.21311 31.5123L7.68813 31.4087L7.69504 31.4225Z" fill="white"/>
<path id="Vector_6" d="M8.95219 15.3072L9.9607 13.8911L10.4028 14.202L10.0988 14.6371L14.202 17.5383L13.7599 18.1669L8.92456 17.9528L11.7567 19.9629L12.0606 19.5277L12.5027 19.8385L11.4942 21.2546L11.059 20.9507L11.3698 20.5155L7.75718 17.9528L7.45324 18.3879L7.01807 18.0771L7.75027 17.0617L12.6201 17.2344L9.72584 15.1828L9.42191 15.618L8.97982 15.3072H8.95219Z" fill="white"/>
<path id="Vector_7" d="M12.5303 11.1972L17.4623 13.4836L17.7041 13.2418L18.0771 13.6286L16.7854 14.8651L16.4193 14.4714L16.737 14.1674L15.7009 13.6908L14.2158 15.1069L14.644 16.1568L15.0032 15.8183L15.3693 16.2052L14.3194 17.2068L13.9533 16.8199L14.195 16.592L12.1504 11.5633L12.5441 11.1833L12.5303 11.1972ZM13.9878 14.5819L15.1759 13.449L13.1382 12.5096L13.9878 14.5819Z" fill="white"/>
<path id="Vector_8" d="M23.2302 10.4304L21.5585 11.4389L21.2822 10.983L21.7381 10.7067L19.9767 7.82622L20.6053 11.5494L20.2046 11.805L17.1169 9.40115L18.9405 12.4059L19.4241 12.102L19.7073 12.5648L18.1876 13.4835L17.9113 13.0276L18.3603 12.7513L16.0601 8.96597L15.6042 9.24228L15.3279 8.78638L16.661 7.97819L19.8316 10.4304L19.1547 6.46543L20.3635 5.72632L20.6398 6.18222L20.1839 6.45161L22.4841 10.237L22.94 9.96067L23.2232 10.4235L23.2302 10.4304Z" fill="white"/>
<path id="Vector_9" d="M4.49677 44.6506L4.98721 44.4572L4.82143 44.022L7.36342 44.2293L5.60889 46.0667L5.44311 45.6315L4.94576 45.8249L5.66415 47.69L6.1615 47.5035L6.00262 47.0752L8.33048 44.5608L9.6222 44.0566L9.81561 44.5608L10.2991 44.3674L9.58075 42.5093L9.09031 42.6958L9.29063 43.1931L7.92293 43.7112L4.57966 43.4004L4.42769 43.0066L3.93726 43.2L4.49677 44.6506Z" fill="white"/>
<path id="Vector_10" d="M8.24072 22.4357L8.99365 20.6743L8.24072 22.4357Z" fill="white"/>
<path id="Vector_11" d="M8.99372 20.6743L8.24079 22.4357L8.73123 22.6498L8.97299 22.0834L10.2992 22.6567C10.2785 22.8294 10.2233 23.0228 10.1335 23.237C9.64994 24.3698 8.48255 24.6323 7.22537 24.0935C6.03036 23.5824 5.3396 22.6015 5.78169 21.5653C5.9751 21.1094 6.31357 20.7503 6.56915 20.6397L7.10795 20.8193L7.3359 20.2944L6.25831 19.8315C6.25831 19.8315 5.71261 20.3703 5.23599 21.4825C4.53833 23.1126 5.36033 24.3629 6.84546 24.9984C8.33059 25.6339 9.87789 25.2885 10.5617 23.7067C10.8035 23.1403 11.0107 22.3666 10.99 21.9245L9.35982 21.2269L9.50488 20.8953L9.01444 20.6812L8.99372 20.6743Z" fill="white"/>
<path id="Vector_12" d="M2.69397 31.8992L2.71469 33.6676H3.24658V33.1357L6.34808 33.1081C7.30823 33.1012 7.8194 33.4534 7.8263 34.2478C7.83321 35.0422 7.32896 35.4083 6.3688 35.4152L3.2673 35.4428V34.9593H2.72851L2.74923 36.9072H3.28111V36.3615L6.38262 36.3339C7.59835 36.3201 8.372 35.7122 8.35819 34.3445C8.34437 32.9768 7.55691 32.3828 6.34117 32.3966L3.23967 32.4242V31.8923H2.70088L2.69397 31.8992Z" fill="white"/>
<path id="Vector_13" d="M35.1665 8.28218L32.5071 4.23434L32.5347 7.70194H33.0666V8.23383L31.3328 8.24764V7.70885H31.8647L31.8233 3.28109H31.2914V2.74921H32.5486L35.2563 6.79705L35.2218 3.25346H34.6899V2.72158L36.4168 2.70776V3.23965H35.8918L35.9333 8.27527H35.1665V8.28218Z" fill="white"/>
<path id="Vector_14" d="M37.1972 7.84701L37.7222 7.9299L38.3991 3.5574L37.8742 3.47451L37.9571 2.94263L39.9395 3.25347L39.8566 3.78535L39.3317 3.70246L38.6547 8.07496L39.1728 8.15785L39.0899 8.68973L37.1074 8.37889L37.1903 7.84701H37.1972Z" fill="white"/>
<path id="Vector_15" d="M40.7548 3.33625L42.5024 3.85432L42.3504 4.37239L41.8807 4.22733L42.1708 7.98506L44.4227 4.98026L43.953 4.84211L44.1049 4.32404L45.4934 4.73849L45.3414 5.24965L45.0167 5.15295L41.7978 9.44946L41.335 9.31131L40.9136 3.93721L40.589 3.84741L40.7479 3.32935L40.7548 3.33625Z" fill="white"/>
<path id="Vector_16" d="M47.2548 11.7015L43.801 10.023L44.029 9.54635L44.5056 9.7743L46.4397 5.79554L45.9631 5.56068L46.198 5.07715L49.5136 6.68662L49.0508 7.64677L48.5258 7.39119L48.7538 6.91457L47.2894 6.20308L46.4743 7.87472L47.469 8.35134L47.6624 7.9507L48.1459 8.18556L47.5242 9.47037L47.0338 9.2286L47.2272 8.83487L46.2394 8.35134L45.3621 10.1473L46.9647 10.9279L47.2203 10.4098L47.7453 10.6654L47.2479 11.7015H47.2548Z" fill="white"/>
<path id="Vector_17" d="M54.5906 17.3587L54.9153 17.7869L58.4381 15.1137L58.1135 14.6923L58.5418 14.3677L59.7575 15.9633L59.3292 16.288L59.0046 15.8597L55.4748 18.5329L55.7994 18.9612L55.3712 19.2859L54.1624 17.6902L54.5906 17.3656V17.3587Z" fill="white"/>
<path id="Vector_18" d="M57.1878 22.2768L56.1931 20.5361L56.6628 20.2667L56.9253 20.7295L60.7314 18.5675L60.0752 17.407L59.5295 17.7109L59.2463 17.1998L60.2893 16.6057L62.6517 20.7779L61.6018 21.3719L61.3185 20.8608L61.8573 20.5568L61.1873 19.3895L57.3743 21.5446L57.6437 22.0005L57.174 22.2699L57.1878 22.2768Z" fill="white"/>
<path id="Vector_19" d="M58.8043 26.1728L58.1135 24.2939L58.6178 24.1074L58.8043 24.6117L60.5726 23.9555L62.4377 21.676L62.3133 21.3444L62.8176 21.1648L63.4738 22.947L62.9696 23.1265L62.8176 22.6983L61.4982 24.3147L63.5567 24.7291L63.3978 24.2939L63.9021 24.1074L64.4132 25.5097L63.909 25.6962L63.7846 25.3646L60.9595 24.8189L59.1151 25.4958L59.3016 25.9932L58.7974 26.1797L58.8043 26.1728Z" fill="white"/>
<path id="Vector_20" d="M29.8753 2.90796L28.1484 3.28788L28.2589 3.81285L28.777 3.70233L29.4332 6.73476C29.6404 7.67419 29.3917 8.24061 28.6181 8.4133C27.8375 8.57908 27.3816 8.16463 27.1813 7.2252L26.5251 4.19277L26.9948 4.08916L26.8843 3.56418L24.9778 3.97863L25.0883 4.50361L25.6202 4.38618L26.2764 7.4117C26.532 8.59981 27.2849 9.2353 28.625 8.94519C29.9651 8.65507 30.3864 7.75708 30.1239 6.57589L29.4677 3.54346L29.9927 3.43293L29.8822 2.90796H29.8753Z" fill="white"/>
<path id="Vector_21" d="M56.7112 14.0637L56.3105 13.6492L56.6559 13.2624C56.6421 13.1104 56.5247 12.7167 56.2829 12.4611C56.0135 12.1848 55.5576 12.1503 55.1984 12.5026C54.9635 12.7305 54.9152 13.0621 55.0326 13.6009C55.0326 13.6009 55.1086 13.9186 55.1362 14.0222C55.3918 15.0031 55.454 15.6317 54.8737 16.1843C54.1761 16.8543 53.1399 16.7438 52.4285 16.0047C51.9518 15.5074 51.6203 14.9824 51.5236 14.6715L52.3663 13.8634L52.76 14.2778L52.3801 14.7061C52.3801 14.9686 52.5321 15.3485 52.7738 15.5972C53.1607 15.9978 53.6995 16.0116 54.0586 15.6662C54.4109 15.3278 54.404 15.0031 54.259 14.3745C54.2313 14.264 54.1623 13.9601 54.1623 13.9601C53.9136 12.9861 53.955 12.392 54.4247 11.943C55.0948 11.3006 56.0204 11.4181 56.649 12.0674C57.0704 12.5026 57.3881 13.1173 57.471 13.3384L56.7112 14.0637Z" fill="white"/>
<path id="Vector_22" d="M51.2543 13.905L51.3786 11.6048C52.028 11.8465 52.5668 11.6807 53.0503 11.0176C53.7341 10.0851 53.4509 9.35288 52.3733 8.56542L50.8675 7.46021L50.5497 7.88848L50.978 8.20622L48.36 11.7705L47.9318 11.4528L47.614 11.8811L49.2304 13.0692L49.5481 12.6409L49.1199 12.3231L50.1905 10.8656L50.5152 11.1005L50.3011 13.8428L51.3027 14.575L51.6204 14.1467L51.2612 13.8843L51.2543 13.905ZM51.7378 8.75883L52.0349 8.97987C52.6635 9.44268 52.7187 9.80187 52.2559 10.4374C51.7931 11.0729 51.4339 11.1281 50.7984 10.6584L50.5014 10.4374L51.7378 8.75883Z" fill="white"/>
<path id="Vector_23" d="M60.0268 32.6591L59.7367 30.0135L60.2755 29.9513L60.3722 30.8355L64.6342 30.3658L64.3579 29.5024L64.9036 29.4402L65.4562 31.174L60.462 31.7266L60.5587 32.6108L60.0199 32.666L60.0268 32.6591Z" fill="white"/>
<path id="Vector_24" d="M63.9435 44.3882L63.156 44.0704L62.1406 46.6055C60.8972 44.5678 59.5295 42.9031 58.6523 42.5508L58.2723 43.4971C59.868 44.1326 61.3324 46.2394 62.0577 47.5035L62.5965 47.7246L63.9366 44.3882H63.9435Z" fill="white"/>
<path id="Vector_25" d="M61.8091 38.0953L61.3393 37.9917L60.8144 40.3265L59.8818 40.1192L59.9993 39.6012L59.4674 39.4837L59.046 41.3557L59.5779 41.4731L59.6953 40.9481L60.6279 41.1554L60.4552 41.929L61.1597 42.0879L61.3324 41.3142L64.6204 42.0464L64.7379 41.5077L61.8021 38.0884L61.8091 38.0953ZM61.5189 40.4853L61.8505 38.9864L63.5221 40.9205L61.512 40.4784L61.5189 40.4853Z" fill="white"/>
<path id="Vector_26" d="M65.6289 35.4773C65.6841 34.2408 64.6825 33.6122 63.7846 33.5777C62.8866 33.5363 61.961 34.1372 61.9126 35.1803C61.885 35.7881 62.1889 36.1957 62.3063 36.3407C61.4567 36.2578 60.3791 35.8088 60.4206 34.9937C60.4344 34.6691 60.5242 34.3997 60.6002 34.2892L61.0353 34.2685L61.063 33.6951L60.2133 33.6606C60.0752 33.8816 59.9163 34.2754 59.8887 34.9868C59.8541 35.7674 60.2064 36.3407 60.7867 36.7345C61.3945 37.1489 62.1682 37.3078 63.0524 37.3492C64.5029 37.4114 65.5736 36.8657 65.6358 35.4911L65.6289 35.4773ZM62.4445 35.3115C62.4721 34.6967 63.0938 34.4411 63.8467 34.4688C64.5997 34.5033 65.1177 34.8211 65.0901 35.422C65.0625 36.023 64.2819 36.4305 63.5428 36.396C62.6448 36.3545 62.4307 35.7743 62.4514 35.3046L62.4445 35.3115Z" fill="white"/>
<path id="Vector_27" d="M18.6297 54.7564C18.8024 54.9015 18.7954 55.0534 18.6435 55.2399L18.5399 55.3643L17.4554 54.4594C17.483 53.9344 17.2343 53.368 16.7163 52.9328C15.8804 52.242 14.8581 52.2973 14.2986 52.9673C13.746 53.6305 13.8703 54.6597 14.6993 55.3504C15.2104 55.7787 15.7976 55.9169 16.3018 55.8063L17.4001 56.7181L16.9511 57.2569L17.7938 57.9546L19.8178 55.5162L18.7333 54.6113L18.6228 54.7426L18.6297 54.7564ZM15.0654 54.9222C14.6923 54.6113 14.796 54.0725 15.1275 53.6719C15.4591 53.2782 15.9772 53.0848 16.3433 53.3887C16.7094 53.6926 16.6196 54.2383 16.288 54.6321C15.9564 55.0327 15.4384 55.2261 15.0654 54.9222ZM17.7662 56.2899L16.8751 55.5508C16.9649 55.4817 17.0409 55.4057 17.1169 55.3228C17.186 55.2399 17.2412 55.157 17.2896 55.0672L18.1738 55.8063L17.7662 56.2968V56.2899ZM16.0946 56.7112C15.1344 55.91 14.0638 55.9376 13.5111 56.6007C12.9585 57.2708 13.1243 58.3276 14.0845 59.1289C15.0446 59.9302 16.1222 59.8956 16.6748 59.2325C17.2274 58.5625 17.0616 57.5056 16.1015 56.7043M14.4437 58.7006C14.0223 58.3483 13.9947 57.7543 14.3539 57.3191C14.7131 56.8908 15.3071 56.8149 15.7216 57.1602C16.136 57.5056 16.1775 58.0997 15.8183 58.5348C15.4591 58.97 14.865 59.0529 14.4437 58.7006Z" fill="white"/>
<path id="Vector_28" d="M22.0696 60.8903C22.2769 60.9663 22.3321 61.1114 22.2492 61.3393L21.7588 62.7416C21.6414 63.0869 21.821 63.4599 22.1664 63.5843L25.558 64.7724L26.4421 62.2442L22.1249 60.7314L22.0696 60.8972V60.8903ZM23.2716 61.74L25.2195 62.4238L24.7152 63.8675L22.7673 63.1836L23.2716 61.74Z" fill="white"/>
<path id="Vector_29" d="M28.176 60.2547L27.2504 59.9301L27.6095 58.9078L26.2764 58.438L26.2211 58.6038C26.4283 58.6798 26.4836 58.8249 26.4007 59.0528L25.855 60.607L22.9469 59.5916L23.617 57.6782L22.2838 57.2085L22.2285 57.3743C22.4358 57.4503 22.491 57.5953 22.4081 57.8233L21.9453 59.1495C21.8279 59.4949 22.0075 59.8679 22.3529 59.9923L25.6754 61.1527L25.5373 61.5395L26.5734 61.8987L27.0708 60.4689L27.9964 60.7935L28.1898 60.2478L28.176 60.2547Z" fill="white"/>
<path id="Vector_30" d="M41.86 63.1145L45.3483 61.8228L45.9631 63.4807L46.9923 63.1007L46.1772 60.8972L41.6597 62.5689L41.86 63.1145Z" fill="white"/>
<path id="Vector_31" d="M43.7458 59.8265C43.6283 59.5088 43.3935 59.2601 43.0895 59.1081L43.656 58.9009L43.4625 58.3828L42.1639 58.8664L41.9083 58.1687L40.5821 58.6591L40.6442 58.818C40.8515 58.742 40.9827 58.818 41.0725 59.046L41.1416 59.2394L39.8361 59.7229L40.0295 60.241L40.6097 60.0268C40.4785 60.3377 40.4647 60.6762 40.5821 60.9939C40.8515 61.7261 41.7218 62.0853 42.6613 61.7399C43.6007 61.3945 44.029 60.5518 43.7527 59.8196L43.7458 59.8265ZM41.5491 60.6416C41.3834 60.1995 41.4732 59.7782 41.8738 59.6331C42.2675 59.4881 42.6129 59.7505 42.7787 60.1926C42.9445 60.6347 42.8616 61.063 42.4609 61.208C42.0603 61.36 41.7218 61.0837 41.556 60.6416H41.5491Z" fill="white"/>
<path id="Vector_32" d="M46.2325 58.2239L45.3137 58.5624L44.8371 57.2776L43.5109 57.768L43.573 57.9269C43.7803 57.8509 43.9115 57.9269 44.0013 58.1549L45.0098 60.8833L46.039 60.5034L45.521 59.0943L46.4397 58.7558L46.2394 58.217L46.2325 58.2239Z" fill="white"/>
<path id="Vector_33" d="M35.4703 59.6194V59.7921C35.6914 59.7921 35.7881 59.9095 35.7881 60.1582V61.3048H35.194V59.6194H33.8539V59.7921C34.075 59.7921 34.1717 59.9095 34.1717 60.1582V63.163H32.2859V60.4621H33.5362V59.8888H30.8699V60.0615C31.0909 60.0615 31.1876 60.1789 31.1876 60.4276V63.0801C31.1876 63.4462 31.4846 63.7432 31.8508 63.7432H34.1717V65.8293H35.194V61.8851H35.7881V65.8293H36.8242V59.6263H35.4703V59.6194Z" fill="white"/>
<path id="Vector_34" d="M54.2107 56.5179L55.0465 55.8272L52.242 52.4355L48.4359 55.5854L48.802 56.0275L51.7792 53.5684L54.2107 56.5179Z" fill="white"/>
<path id="Vector_35" d="M54.0518 57.3328L52.318 55.2329L51.2819 56.0894L51.3924 56.2207C51.5651 56.0756 51.7171 56.1102 51.869 56.2967L53.2644 57.9821L52.7187 58.4311L50.9849 56.3312L49.9487 57.1878L50.0593 57.319C50.2319 57.1739 50.3839 57.2085 50.5359 57.395L51.9312 59.0804L51.0401 59.8126L51.4062 60.2547L56.1794 56.3105L55.8133 55.8684L54.0518 57.319V57.3328Z" fill="white"/>
<path id="Subtract" fill-rule="evenodd" clip-rule="evenodd" d="M33.866 58.1475C47.2089 58.1475 58.0254 47.3309 58.0254 33.988C58.0254 20.6452 47.2089 9.82861 33.866 9.82861C20.5231 9.82861 9.70654 20.6452 9.70654 33.988C9.70654 47.3309 20.5231 58.1475 33.866 58.1475ZM50.0607 24.638L33.8659 15.288L17.6711 24.638V43.3382L33.8659 52.6882L50.0607 43.3382V24.638Z" fill="white"/>
<path id="Union" fill-rule="evenodd" clip-rule="evenodd" d="M22.25 28.9245C22.0907 28.8564 21.9097 28.8081 21.6573 28.7447C21.6125 28.7335 21.5853 28.6881 21.5965 28.6434C21.6055 28.6074 21.6372 28.5817 21.6742 28.5802L21.7223 28.5783L21.7901 28.5782C22.0391 28.5777 22.1813 28.5773 22.3649 28.6559C22.4402 28.688 22.5152 28.7219 22.5903 28.7557L22.5903 28.7557C22.9061 28.8981 23.2234 29.0412 23.5668 29.0663L27.8439 29.3802C28.5309 29.4306 29.0625 30.0026 29.0625 30.6915V33.1424L29.0625 38.371H28.7703V33.0852C26.4143 32.5934 24.4378 31.0237 22.7812 29.3017L22.7698 29.3008L22.7705 29.2906L22.7444 29.2633C22.5678 29.0939 22.4199 28.9971 22.25 28.9245ZM33.9577 42.5348L38.9969 38.3711H28.7703L33.9577 42.5348ZM46.1099 28.7447C45.8575 28.8081 45.6765 28.8564 45.5172 28.9245C45.3473 28.9972 45.1994 29.0939 45.0228 29.2633L44.9967 29.2906L44.9974 29.3009L44.986 29.3017C43.3294 31.0237 41.3529 32.5934 38.9969 33.0852V38.371H38.7047L38.7047 33.1424V30.6915C38.7047 30.0027 39.2363 29.4306 39.9233 29.3802L44.2004 29.0664C44.5437 29.0412 44.861 28.8981 45.1769 28.7557C45.252 28.7219 45.327 28.6881 45.4023 28.6559C45.5859 28.5773 45.7281 28.5777 45.9771 28.5782C45.9988 28.5783 46.0214 28.5783 46.0449 28.5783L46.093 28.5802C46.13 28.5817 46.1617 28.6074 46.1707 28.6434C46.1819 28.6882 46.1547 28.7335 46.1099 28.7447Z" fill="white"/>
</g>
<defs>
<clipPath id="clip0_105_94">
<rect width="68.24" height="68.24" fill="white"/>
</clipPath>
</defs>
</svg>
