<svg width="772" height="220" viewBox="0 0 772 220" fill="none" xmlns="http://www.w3.org/2000/svg">
<path fill-rule="evenodd" clip-rule="evenodd" d="M88.9139 107.508C70.3392 107.508 56.6101 94.2192 56.6101 76.0851C56.6101 57.9509 70.3392 44.6623 88.9139 44.6623C107.489 44.6623 121.218 57.9509 121.218 76.0851C121.218 94.2192 107.489 107.508 88.9139 107.508ZM88.9139 95.4673C99.7797 95.4673 107.856 87.318 107.856 76.0851C107.856 64.7787 99.7797 56.7028 88.9139 56.7028C78.0481 56.7028 69.9721 64.7787 69.9721 76.0851C69.9721 87.318 78.0481 95.4673 88.9139 95.4673ZM180.844 64.2648C180.183 52.8851 170.198 44.7357 156.836 44.7357C143.327 44.7357 132.608 51.1965 132.608 61.9889C132.608 73.2218 139.656 78.5813 152.651 81.0041C163.297 82.9863 167.335 84.8952 167.335 89.6674C167.335 93.5585 163.297 96.2749 157.864 96.2749C150.229 96.2749 145.236 92.4572 144.502 86.7306H130.773C131.36 99.5053 142.153 107.508 156.91 107.508C170.272 107.508 181.064 100.533 181.064 89.08C181.064 80.1231 176.365 73.2952 162.563 70.4319C150.889 68.0091 146.264 66.4674 146.264 61.9889C146.264 58.3914 149.715 55.8952 155.955 55.8952C162.343 55.8952 166.234 59.0522 167.041 64.2648H180.844ZM216.591 44.7357C229.953 44.7357 239.938 52.8851 240.599 64.2648H226.796C225.989 59.0522 222.098 55.8952 215.71 55.8952C209.47 55.8952 206.019 58.3914 206.019 61.9889C206.019 66.4674 210.645 68.0091 222.318 70.4319C236.12 73.2952 240.819 80.1231 240.819 89.08C240.819 100.533 230.027 107.508 216.665 107.508C201.908 107.508 191.115 99.5053 190.528 86.7306H204.257C204.991 92.4572 209.984 96.2749 217.619 96.2749C223.052 96.2749 227.09 93.5585 227.09 89.6674C227.09 84.8952 223.052 82.9863 212.407 81.0041C199.412 78.5813 192.364 73.2218 192.364 61.9889C192.364 51.1965 203.083 44.7357 216.591 44.7357ZM266.435 46.204H253.073V106.039H266.435V46.204ZM281.425 106.039V46.204H307.415C320.703 46.204 328.192 53.1053 328.192 64.0445C328.192 68.3028 325.329 73.1483 321.217 74.6901C326.944 76.5255 330.982 82.1053 330.982 87.9053C330.982 98.9914 323.053 106.039 309.617 106.039H281.425ZM294.787 70.4319H306.827C311.893 70.4319 314.83 68.2293 314.83 64.0445C314.83 59.8597 311.893 57.5838 306.827 57.5838H294.787V70.4319ZM294.787 94.6597H309.03C314.316 94.6597 317.62 92.3104 317.62 87.9053C317.62 83.5002 314.316 81.1509 309.03 81.1509H294.787V94.6597ZM356.621 46.204H343.259V106.039H356.621V46.204ZM371.611 46.204H384.973V94.2192H414.854V106.039H371.611V46.204ZM466.425 58.0243V46.204H414.151V58.0243H433.607V106.039H446.969V58.0243H466.425ZM510.355 87.2445L526.229 58.1512L757.19 58.1513V158.204H757.182L742.866 186.47L728.476 158.204H713.205L735.597 199.245V218.039H748.959V199.245L771.348 158.21C771.351 158.21 771.353 158.208 771.353 158.205V58.1513V52.2296V46.3078L532.691 46.3078L532.748 46.204H518.578L504.262 74.4699L489.872 46.204H474.601L496.993 87.2445V106.039H510.355V87.2445ZM0 46.204V106.039V160.958L6.05175e-05 170.325L198.62 170.325L172.475 201.483L181.545 209.094L214.076 170.325V158.481L13.3663 158.481V106.039H13.362V90.1078H22.9797C38.5443 90.1078 47.6481 81.4445 47.6481 68.0825C47.6481 54.8673 38.5443 46.204 22.9797 46.204H0ZM22.3924 78.2876H13.362V58.0243H22.3924C29.8076 58.0243 34.2861 61.4749 34.2861 68.0825C34.2861 74.7635 29.8076 78.2876 22.3924 78.2876ZM278.896 158.204V170.024H259.44V218.039H246.078V170.024H226.623V158.204H278.896ZM317.408 219.508C298.834 219.508 285.105 206.219 285.105 188.085C285.105 169.951 298.834 156.662 317.408 156.662C335.983 156.662 349.712 169.951 349.712 188.085C349.712 206.219 335.983 219.508 317.408 219.508ZM317.408 207.467C328.274 207.467 336.35 199.318 336.35 188.085C336.35 176.779 328.274 168.703 317.408 168.703C306.542 168.703 298.467 176.779 298.467 188.085C298.467 199.318 306.542 207.467 317.408 207.467ZM438.138 218.039H422.647L411.047 199.171H400.401V218.039H387.039V158.204H411.12C426.318 158.204 435.201 166.28 435.201 178.688C435.201 186.91 431.31 193.224 424.262 196.528L438.138 218.039ZM400.401 170.024V187.351H410.533C417.581 187.351 421.839 184.341 421.839 178.688C421.839 173.034 417.581 170.024 410.533 170.024H400.401ZM448.73 218.039V158.204H493.221V169.804H462.092V181.991H490.652V193.591H462.092V206.439H493.882V218.039H448.73ZM548.087 218.039L543.902 206.439H520.702L516.517 218.039H502.715L525.915 158.204H539.79L562.99 218.039H548.087ZM539.79 194.839L532.302 173.989L524.813 194.839H539.79ZM573.403 158.204H586.765V206.219H616.646V218.039H573.403V158.204ZM627.78 158.204H641.142V218.039H627.78V158.204ZM705.029 158.204V170.024H685.573V218.039H672.211V170.024H652.755V158.204H705.029Z" fill="white"/>
<path d="M1.728 1.6H6.096V17.296H15.864V21.16H1.728V1.6ZM17.3439 1.6H21.7119V21.16H17.3439V1.6ZM36.9561 21.16L31.4841 13.696L28.8201 16.768V21.16H24.4521V1.6H28.8201V10.816L36.6441 1.6H41.9961L34.3161 10.456L42.4041 21.16H36.9561ZM43.5602 21.16V1.6H58.1042V5.392H47.9282V9.376H57.2642V13.168H47.9282V17.368H58.3202V21.16H43.5602ZM60.5355 1.6H64.9035V17.296H74.6715V21.16H60.5355V1.6ZM76.1514 1.6H80.5194V21.16H76.1514V1.6ZM92.9556 21.64C86.8836 21.64 82.3956 17.296 82.3956 11.368C82.3956 5.44 86.8836 1.096 92.9556 1.096C99.0276 1.096 103.516 5.44 103.516 11.368C103.516 17.296 99.0276 21.64 92.9556 21.64ZM92.9556 17.704C96.5076 17.704 99.1476 15.04 99.1476 11.368C99.1476 7.672 96.5076 5.032 92.9556 5.032C89.4036 5.032 86.7636 7.672 86.7636 11.368C86.7636 15.04 89.4036 17.704 92.9556 17.704ZM105.391 21.16V1.6H109.039L118.807 13.36V1.36H123.175V20.92H119.527L109.759 9.16V21.16H105.391ZM149.504 1.6L142.184 15.016V21.16H137.816V15.016L130.496 1.6H135.488L140.192 10.84L144.872 1.6H149.504ZM150.593 12.496V1.6H154.961V12.496C154.961 15.616 156.689 17.704 159.545 17.704C162.401 17.704 164.129 15.616 164.129 12.496V1.6H168.497V12.496C168.497 18.04 164.921 21.64 159.545 21.64C154.169 21.64 150.593 18.04 150.593 12.496Z" fill="#F07F36"/>
</svg>
